# xmcd CD database file
#
# Track frame offsets:
#	150
#	16802
#	40654
#	61056
#	84158
#	91285
#	117762
#	149939
#
# Disc length: 2241 seconds
#
# Revision: 0
# Processed by: cddbd v1.5.2PL0 Copyright (c) Steve Scherf et al.
# Submitted via: Feurio! 1.64 - http://www.feurio.com
#
DISCID=5c08bf08
DTITLE=Ten Years After - Watt
DYEAR=1970
DGENRE=Blues Rock - Electric Blues
TTITLE0=I'm Coming On
TTITLE1=My Baby Left Me
TTITLE2=Think About the Times
TTITLE3=I Say Yeah
TTITLE4=The Band With No Name
TTITLE5=Gonna Run
TTITLE6=She Lies in the Morning
TTITLE7=Sweet Little Sixteen
EXTD=
EXTT0=
EXTT1=
EXTT2=
EXTT3=
EXTT4=
EXTT5=
EXTT6=
EXTT7=
PLAYORDER=
